<svg width="760" height="560" viewBox="0 0 760 560" fill="none" xmlns="http://www.w3.org/2000/svg">
  <rect width="760" height="560" rx="40" fill="#EAF2FF"/>
  <circle cx="615" cy="110" r="78" fill="#DBEAFE"/>
  <circle cx="125" cy="420" r="92" fill="#DDEBFF"/>
  <rect x="44" y="42" width="672" height="476" rx="32" fill="white"/>
  <rect x="80" y="86" width="170" height="364" rx="28" fill="#F8FAFC"/>
  <rect x="104" y="112" width="68" height="68" rx="20" fill="#2563EB"/>
  <path d="M121 153V132.5C121 129.462 123.462 127 126.5 127H137.5C140.538 127 143 129.462 143 132.5V153C143 156.038 140.538 158.5 137.5 158.5H126.5C123.462 158.5 121 156.038 121 153Z" fill="white" fill-opacity="0.96"/>
  <path d="M139 143.5C139 138.806 142.806 135 147.5 135C152.194 135 156 138.806 156 143.5C156 148.194 152.194 152 147.5 152H143.25C140.902 152 139 150.098 139 147.75V143.5Z" fill="#BFDBFE"/>
  <path d="M128 138H133" stroke="#1D4ED8" stroke-width="3.2" stroke-linecap="round"/>
  <path d="M128 145H133" stroke="#60A5FA" stroke-width="3.2" stroke-linecap="round"/>
  <path d="M128 152H131" stroke="#1E3A8A" stroke-width="3.2" stroke-linecap="round"/>
  <circle cx="147.5" cy="143.5" r="4" fill="#1D4ED8"/>
  <rect x="104" y="208" width="122" height="14" rx="7" fill="#0F172A"/>
  <rect x="104" y="234" width="82" height="10" rx="5" fill="#93C5FD"/>
  <rect x="104" y="278" width="122" height="56" rx="18" fill="white" stroke="#DBEAFE" stroke-width="2"/>
  <path d="M122 312L130 304L136 308L147 293" stroke="#2563EB" stroke-width="3.5" stroke-linecap="round" stroke-linejoin="round"/>
  <rect x="104" y="356" width="122" height="70" rx="18" fill="#0F172A"/>
  <circle cx="133" cy="391" r="16" fill="#2563EB"/>
  <path d="M133 391L139 385" stroke="white" stroke-width="3" stroke-linecap="round"/>
  <path d="M133 391V381" stroke="white" stroke-width="3" stroke-linecap="round"/>
  <circle cx="133" cy="391" r="2.8" fill="white"/>
  <rect x="266" y="86" width="414" height="156" rx="30" fill="#0F172A"/>
  <rect x="300" y="116" width="120" height="14" rx="7" fill="#F8FAFC"/>
  <rect x="300" y="144" width="220" height="10" rx="5" fill="#CBD5E1"/>
  <rect x="300" y="182" width="166" height="20" rx="10" fill="#2563EB"/>
  <rect x="542" y="118" width="104" height="92" rx="22" fill="#1E293B"/>
  <circle cx="594" cy="150" r="20" fill="#3B82F6"/>
  <path d="M594 150L601 143" stroke="white" stroke-width="3.2" stroke-linecap="round"/>
  <path d="M594 150V138" stroke="white" stroke-width="3.2" stroke-linecap="round"/>
  <circle cx="594" cy="150" r="3" fill="white"/>
  <rect x="266" y="268" width="198" height="182" rx="30" fill="#F8FAFC"/>
  <rect x="294" y="300" width="98" height="12" rx="6" fill="#0F172A"/>
  <rect x="294" y="326" width="142" height="10" rx="5" fill="#94A3B8"/>
  <rect x="294" y="360" width="144" height="62" rx="22" fill="white" stroke="#DBEAFE" stroke-width="2"/>
  <rect x="318" y="378" width="16" height="26" rx="8" fill="#BFDBFE"/>
  <rect x="342" y="368" width="16" height="36" rx="8" fill="#60A5FA"/>
  <rect x="366" y="349" width="16" height="55" rx="8" fill="#2563EB"/>
  <rect x="390" y="336" width="16" height="68" rx="8" fill="#1E3A8A"/>
  <rect x="482" y="268" width="198" height="182" rx="30" fill="#EFF6FF"/>
  <rect x="510" y="300" width="118" height="12" rx="6" fill="#0F172A"/>
  <rect x="510" y="326" width="132" height="10" rx="5" fill="#94A3B8"/>
  <rect x="510" y="360" width="140" height="50" rx="18" fill="white"/>
  <path d="M533 385L544 396L566 372" stroke="#2563EB" stroke-width="4" stroke-linecap="round" stroke-linejoin="round"/>
</svg>
