<svg width="96" height="96" viewBox="0 0 96 96" fill="none" xmlns="http://www.w3.org/2000/svg">
  <rect width="96" height="96" rx="28" fill="url(#paint0_linear_1_2)"/>
  <path d="M24 62.5V33.5C24 29.9101 26.9101 27 30.5 27H43.5C47.0899 27 50 29.9101 50 33.5V62.5C50 66.0899 47.0899 69 43.5 69H30.5C26.9101 69 24 66.0899 24 62.5Z" fill="white" fill-opacity="0.96"/>
  <path d="M46 49C46 40.7157 52.7157 34 61 34C69.2843 34 76 40.7157 76 49C76 57.2843 69.2843 64 61 64H53.5C49.3579 64 46 60.6421 46 56.5V49Z" fill="#C7D2FE"/>
  <path d="M33 39.5H41" stroke="#1D4ED8" stroke-width="4.5" stroke-linecap="round"/>
  <path d="M33 48H41" stroke="#60A5FA" stroke-width="4.5" stroke-linecap="round"/>
  <path d="M33 56.5H37.5" stroke="#1E3A8A" stroke-width="4.5" stroke-linecap="round"/>
  <circle cx="61" cy="49" r="7" fill="#1D4ED8"/>
  <defs>
    <linearGradient id="paint0_linear_1_2" x1="10.5" y1="8.5" x2="88" y2="92.5" gradientUnits="userSpaceOnUse">
      <stop stop-color="#E0ECFF"/>
      <stop offset="1" stop-color="#2563EB"/>
    </linearGradient>
  </defs>
</svg>
